<?xml version="1.0" encoding="UTF-8" standalone="no"?>
<svg width="1024px" height="1024px" viewBox="0 0 1024 1024" version="1.1" xmlns="http://www.w3.org/2000/svg" xmlns:xlink="http://www.w3.org/1999/xlink" xmlns:sketch="http://www.bohemiancoding.com/sketch/ns">
    <!-- Generator: Sketch 3.4.3 (16618) - http://www.bohemiancoding.com/sketch -->
    <title>white outline</title>
    <desc>Created with Sketch.</desc>
    <defs></defs>
    <g id="Brand" stroke="none" stroke-width="1" fill="none" fill-rule="evenodd" sketch:type="MSPage">
        <g id="white-outline" sketch:type="MSArtboardGroup" fill="#FFFFFF">
            <g id="chevron" sketch:type="MSLayerGroup" transform="translate(115.000000, 271.000000)">
                <path d="M689.944369,1.76875598 L732.082986,43.907373 L393.569184,382.421175 L51.9141129,40.7661036 L92.6499607,0.0302558664 L392.166415,299.54671 L689.944369,1.76875598 Z" id="Rectangle-3" sketch:type="MSShapeGroup"></path>
                <path d="M419.304041,259.333353 L410.168095,259.333353 L410.168095,244.49554 L419.304041,244.49554 L419.304041,228.297055 L436.020878,228.297055 L436.020878,244.49554 L445.999146,244.49554 L445.999146,259.333353 L436.020878,259.333353 L436.020878,294.77564 C436.020878,298.879277 438.41823,300.931064 443.213006,300.931064 L445.73997,300.931064 L445.73997,314.99135 L443.213006,314.99135 C438.591015,314.99135 434.735814,314.591791 431.647287,313.792662 C428.558761,312.993533 426.107414,311.740862 424.293175,310.034613 C422.478935,308.328364 421.193868,306.276577 420.437935,303.879189 C419.682002,301.481801 419.304041,298.533706 419.304041,295.034816 L419.304041,259.333353 Z M475.674771,314.019441 L458.957934,314.019441 L458.957934,219.809048 L475.674771,219.809048 L475.674771,254.927365 C477.618599,251.385279 480.480303,248.447983 484.259969,246.115389 C488.039634,243.782795 492.154008,242.616516 496.603215,242.616516 C498.979005,242.616516 501.34396,243.232052 503.698151,244.463143 C506.052343,245.694235 508.233717,247.443653 510.24234,249.711453 C512.250962,251.979252 513.870794,254.948945 515.101885,258.62062 C516.332976,262.292295 516.948513,266.331077 516.948513,270.737087 L516.948513,314.019441 L500.231676,314.019441 L500.231676,279.225094 C500.231676,274.905476 499.961703,271.298649 499.421751,268.404505 C498.881799,265.510361 498.071883,263.318188 496.991978,261.82792 C495.912074,260.337652 494.713398,259.300959 493.395915,258.717811 C492.078431,258.134662 490.469398,257.843093 488.568766,257.843093 C487.0569,257.843093 485.707039,258.015875 484.519144,258.361444 C483.33125,258.707014 482.16497,259.354947 481.020272,260.305262 C479.875573,261.255578 478.925271,262.508249 478.169338,264.063311 C477.413405,265.618373 476.808668,267.68096 476.355108,270.251133 C475.901548,272.821305 475.674771,275.834193 475.674771,279.289888 L475.674771,314.019441 Z M547.401666,271.838584 L574.161564,271.838584 C573.859191,267.950928 572.520129,264.635671 570.144339,261.892714 C567.76855,259.149757 564.636874,257.778299 560.749218,257.778299 C556.904758,257.778299 553.783881,259.171354 551.386493,261.957508 C548.989105,264.743661 547.660843,268.037321 547.401666,271.838584 L547.401666,271.838584 Z M561.332363,300.995858 C565.608785,300.995858 568.934841,299.570406 571.31063,296.719458 L586.083649,303.069264 C583.405486,307.129705 579.755464,310.282979 575.133473,312.52918 C570.511482,314.775381 565.911158,315.898465 561.332363,315.898465 C557.055942,315.898465 552.973964,314.969761 549.086308,313.112326 C545.198652,311.25489 541.818602,308.727951 538.946056,305.531434 C536.07351,302.334917 533.794946,298.447319 532.110295,293.868525 C530.425644,289.28973 529.583331,284.408635 529.583331,279.225094 C529.583331,268.858011 532.607019,260.208106 538.654483,253.27512 C544.701948,246.342133 552.066786,242.875692 560.749218,242.875692 C566.451113,242.875692 571.558985,244.44153 576.072985,247.573253 C580.586986,250.704976 584.096623,255.035327 586.602001,260.564438 C589.107379,266.093549 590.36005,272.313705 590.36005,279.225094 L590.36005,283.631082 L547.336872,283.631082 C547.380068,286.438833 547.74723,288.933375 548.438369,291.114782 C549.129508,293.296189 549.97182,294.991614 550.965332,296.201107 C551.958845,297.4106 553.103526,298.393298 554.399411,299.149231 C555.695297,299.905164 556.893973,300.401913 557.995475,300.639492 C559.096978,300.877071 560.209263,300.995858 561.332363,300.995858 L561.332363,300.995858 Z M629.366003,280.067415 C625.564739,280.067415 622.422265,281.158102 619.938484,283.339509 C617.454704,285.520916 616.212833,288.058653 616.212833,290.952797 C616.212833,293.846941 617.443905,296.352282 619.906087,298.468895 C622.368269,300.585507 625.521543,301.643798 629.366003,301.643798 C633.167267,301.643798 636.190954,300.596306 638.437155,298.501292 C640.683356,296.406277 641.80644,293.890137 641.80644,290.952797 C641.80644,288.015457 640.683356,285.466921 638.437155,283.307112 C636.190954,281.147303 633.167267,280.067415 629.366003,280.067415 L629.366003,280.067415 Z M623.858518,266.007129 C628.134939,266.007129 631.89295,267.097816 635.132664,269.279223 C638.372377,271.46063 640.424165,273.933574 641.288088,276.69813 L641.288088,271.385027 C641.288088,268.836452 640.931725,266.611882 640.218988,264.711251 C639.506251,262.810619 638.609944,261.309574 637.53004,260.208071 C636.450135,259.106569 635.165068,258.221061 633.6748,257.55152 C632.184532,256.881979 630.780677,256.439225 629.463194,256.223244 C628.14571,256.007263 626.752655,255.899274 625.283985,255.899274 C623.29696,255.899274 621.342363,256.104453 619.420133,256.514817 C617.497903,256.92518 616.083249,257.31394 615.17613,257.681108 C614.26901,258.048275 612.973144,258.599018 611.288493,259.333353 L604.614717,248.707147 C606.558545,247.152084 609.625427,245.74823 613.815457,244.49554 C618.005486,243.242851 621.82829,242.616516 625.283985,242.616516 C628.826071,242.616516 632.141328,242.951281 635.229855,243.620822 C638.318381,244.290363 641.288074,245.424246 644.139022,247.022504 C646.98997,248.620763 649.430517,250.618556 651.460737,253.015944 C653.490958,255.413332 655.099991,258.447818 656.287886,262.119493 C657.475781,265.791168 658.069719,269.937939 658.069719,274.55993 L658.069719,294.257288 L658.069719,314.019441 L641.417676,314.019441 L641.417676,305.207465 C640.510557,307.97202 638.469568,310.444964 635.294649,312.626371 C632.11973,314.807778 628.394115,315.898465 624.117694,315.898465 C617.508678,315.898465 611.925656,313.501113 607.368459,308.706337 C602.811263,303.911562 600.532699,297.950579 600.532699,290.823209 C600.532699,283.69584 602.800464,277.778052 607.336062,273.069669 C611.871661,268.361286 617.379091,266.007129 623.858518,266.007129 L623.858518,266.007129 Z M678.479811,259.333353 L669.343865,259.333353 L669.343865,244.49554 L678.479811,244.49554 L678.479811,228.297055 L695.196649,228.297055 L695.196649,244.49554 L705.174916,244.49554 L705.174916,259.333353 L695.196649,259.333353 L695.196649,294.77564 C695.196649,298.879277 697.594,300.931064 702.388776,300.931064 L704.91574,300.931064 L704.91574,314.99135 L702.388776,314.99135 C697.766785,314.99135 693.911584,314.591791 690.823057,313.792662 C687.734531,312.993533 685.283184,311.740862 683.468945,310.034613 C681.654705,308.328364 680.369638,306.276577 679.613705,303.879189 C678.857772,301.481801 678.479811,298.533706 678.479811,295.034816 L678.479811,259.333353 Z M758.111567,261.730729 C753.44638,259.095762 750.077128,257.778299 748.003712,257.778299 C745.627922,257.778299 743.554536,258.404634 741.783493,259.657323 C740.01245,260.910012 738.66259,262.583839 737.733872,264.678854 C736.805154,266.773868 736.124824,268.944444 735.692863,271.190645 C735.260901,273.436846 735.044923,275.769405 735.044923,278.188391 L735.044923,314.019441 L718.328086,314.019441 L718.328086,244.49554 L735.044923,244.49554 L735.044923,254.927365 C736.859163,251.471671 739.342906,248.555973 742.496227,246.180183 C745.649548,243.804393 748.543648,242.616516 751.178615,242.616516 C753.338424,242.616516 755.616988,243.188857 758.014376,244.333556 C760.411764,245.478254 762.539143,246.936103 764.396579,248.707147 L758.111567,261.730729 Z M789.536629,271.838584 L816.296527,271.838584 C815.994154,267.950928 814.655092,264.635671 812.279303,261.892714 C809.903513,259.149757 806.771837,257.778299 802.884181,257.778299 C799.039721,257.778299 795.918844,259.171354 793.521456,261.957508 C791.124068,264.743661 789.795806,268.037321 789.536629,271.838584 L789.536629,271.838584 Z M803.467326,300.995858 C807.743748,300.995858 811.069804,299.570406 813.445594,296.719458 L828.218612,303.069264 C825.540449,307.129705 821.890427,310.282979 817.268436,312.52918 C812.646445,314.775381 808.046121,315.898465 803.467326,315.898465 C799.190905,315.898465 795.108927,314.969761 791.221271,313.112326 C787.333615,311.25489 783.953565,308.727951 781.081019,305.531434 C778.208473,302.334917 775.929909,298.447319 774.245258,293.868525 C772.560607,289.28973 771.718295,284.408635 771.718295,279.225094 C771.718295,268.858011 774.741982,260.208106 780.789447,253.27512 C786.836911,246.342133 794.201749,242.875692 802.884181,242.875692 C808.586076,242.875692 813.693948,244.44153 818.207948,247.573253 C822.721949,250.704976 826.231586,255.035327 828.736964,260.564438 C831.242342,266.093549 832.495013,272.313705 832.495013,279.225094 L832.495013,283.631082 L789.471835,283.631082 C789.515031,286.438833 789.882193,288.933375 790.573332,291.114782 C791.264471,293.296189 792.106784,294.991614 793.100296,296.201107 C794.093808,297.4106 795.238489,298.393298 796.534375,299.149231 C797.83026,299.905164 799.028936,300.401913 800.130438,300.639492 C801.231941,300.877071 802.344226,300.995858 803.467326,300.995858 L803.467326,300.995858 Z" id="theatre" sketch:type="MSShapeGroup" transform="translate(623.502151, 267.853757) rotate(-45.000000) translate(-623.502151, -267.853757) "></path>
                <path d="M10.7976257,271.548565 C7.98987412,266.6242 4.10227644,264.162055 -0.865283987,264.162055 C-5.14170557,264.162055 -8.78092895,266.224642 -11.7830633,270.349877 C-14.7851976,274.475112 -16.2862423,279.71257 -16.2862423,286.062408 C-16.2862423,292.36905 -14.6772088,297.498519 -11.4590936,301.450969 C-8.24097835,305.403419 -4.2777885,307.379615 0.430594863,307.379615 C1.29451842,307.379615 2.08283683,307.314821 2.79557377,307.185233 C3.5083107,307.055644 4.12384699,306.915259 4.64220113,306.764072 C5.16055526,306.612886 5.67890161,306.342914 6.19725575,305.954148 C6.71560988,305.565382 7.10436965,305.273813 7.36354671,305.07943 C7.62272378,304.885047 7.94669025,304.496287 8.33545585,303.913139 C8.72422145,303.32999 8.98339463,302.941231 9.11298316,302.746848 C9.24257169,302.552465 9.49094599,302.098912 9.8581135,301.386175 C10.225281,300.673438 10.4520575,300.252282 10.5384499,300.122693 L24.4043536,307.314821 C21.8557791,311.548046 18.5081256,315.122476 14.3612925,318.038218 C10.2144594,320.95396 5.57094,322.411809 0.430594863,322.411809 C-9.8932916,322.411809 -18.0896434,319.107351 -24.1587063,312.498336 C-30.2277693,305.889321 -33.2622552,297.077433 -33.2622552,286.062408 C-33.2622552,275.176971 -30.2169704,266.321887 -24.1263093,259.496891 C-18.0356483,252.671895 -10.2820507,249.259448 -0.865283987,249.259448 C4.14547262,249.259448 9.0157686,250.630906 13.74575,253.373864 C18.4757315,256.116821 22.0933571,259.756044 24.5987354,264.291643 L10.7976257,271.548565 Z M63.6694828,286.580759 C59.8682191,286.580759 56.7257443,287.671446 54.2419641,289.852853 C51.7581839,292.03426 50.5163124,294.571998 50.5163124,297.466142 C50.5163124,300.360285 51.747385,302.865626 54.2095671,304.982239 C56.6717493,307.098852 59.8250229,308.157142 63.6694828,308.157142 C67.4707464,308.157142 70.4944335,307.10965 72.7406347,305.014636 C74.9868359,302.919621 76.1099197,300.403482 76.1099197,297.466142 C76.1099197,294.528801 74.9868359,291.980265 72.7406347,289.820456 C70.4944335,287.660647 67.4707464,286.580759 63.6694828,286.580759 L63.6694828,286.580759 Z M58.1619976,272.520474 C62.4384192,272.520474 66.1964303,273.611161 69.4361436,275.792568 C72.675857,277.973975 74.7276446,280.446919 75.5915682,283.211474 L75.5915682,277.898371 C75.5915682,275.349796 75.2352051,273.125227 74.5224681,271.224595 C73.8097312,269.323963 72.9134239,267.822918 71.8335195,266.721416 C70.7536151,265.619913 69.4685481,264.734405 67.9782799,264.064864 C66.4880118,263.395323 65.0841571,262.952569 63.7666737,262.736588 C62.4491902,262.520607 61.0561344,262.412619 59.5874644,262.412619 C57.6004402,262.412619 55.6458425,262.617797 53.7236126,263.028161 C51.8013827,263.438525 50.3867291,263.827285 49.4796093,264.194452 C48.5724896,264.56162 47.2766237,265.112363 45.5919728,265.846698 L38.9181967,255.220491 C40.8620247,253.665429 43.9289073,252.261574 48.1189365,251.008885 C52.3089658,249.756196 56.1317702,249.12986 59.5874644,249.12986 C63.1295509,249.12986 66.4448078,249.464626 69.5333345,250.134167 C72.6218612,250.803707 75.5915539,251.93759 78.4425016,253.535849 C81.2934494,255.134107 83.7339968,257.1319 85.7642171,259.529288 C87.7944375,261.926676 89.403471,264.961162 90.5913659,268.632837 C91.7792607,272.304512 92.3731993,276.451283 92.3731993,281.073274 L92.3731993,300.770633 L92.3731993,320.532785 L75.7211561,320.532785 L75.7211561,311.720809 C74.8140363,314.485364 72.7730475,316.958308 69.5981285,319.139715 C66.4232094,321.321122 62.697595,322.411809 58.4211734,322.411809 C51.8121582,322.411809 46.229136,320.014458 41.6719393,315.219682 C37.1147425,310.424906 34.8361783,304.463923 34.8361783,297.336554 C34.8361783,290.209184 37.1039436,284.291397 41.6395423,279.583013 C46.175141,274.87463 51.682571,272.520474 58.1619976,272.520474 L58.1619976,272.520474 Z M123.409498,320.532785 L106.692661,320.532785 L106.692661,250.944091 L123.409498,250.944091 L123.409498,261.44071 C125.353326,257.898623 128.21503,254.961327 131.994695,252.628733 C135.774361,250.29614 139.888735,249.12986 144.337941,249.12986 C146.713731,249.12986 149.078686,249.745397 151.432878,250.976488 C153.78707,252.207579 155.968444,253.956998 157.977066,256.224797 C159.985688,258.492596 161.605521,261.462289 162.836612,265.133964 C164.067703,268.805639 164.683239,272.844421 164.683239,277.250432 L164.683239,320.532785 L147.966402,320.532785 L147.966402,285.738438 C147.966402,281.41882 147.69643,277.811993 147.156478,274.91785 C146.616525,272.023706 145.806609,269.831533 144.726705,268.341264 C143.6468,266.850996 142.448124,265.814304 141.130641,265.231155 C139.813158,264.648007 138.204124,264.356437 136.303492,264.356437 C134.791626,264.356437 133.441766,264.529219 132.253871,264.874788 C131.065976,265.220358 129.899697,265.868291 128.754998,266.818607 C127.610299,267.768923 126.659998,269.021593 125.904065,270.576655 C125.148131,272.131718 124.543394,274.194304 124.089834,276.764477 C123.636274,279.33465 123.409498,282.347538 123.409498,285.803232 L123.409498,320.532785 Z M198.246501,320.532785 L176.281355,251.008885 L193.840513,251.008885 L205.503423,295.457529 L218.008654,251.008885 L234.012758,251.008885 L212.047611,320.532785 L198.246501,320.532785 Z M274.962529,286.580759 C271.161266,286.580759 268.018791,287.671446 265.535011,289.852853 C263.05123,292.03426 261.809359,294.571998 261.809359,297.466142 C261.809359,300.360285 263.040432,302.865626 265.502614,304.982239 C267.964796,307.098852 271.118069,308.157142 274.962529,308.157142 C278.763793,308.157142 281.78748,307.10965 284.033681,305.014636 C286.279882,302.919621 287.402966,300.403482 287.402966,297.466142 C287.402966,294.528801 286.279882,291.980265 284.033681,289.820456 C281.78748,287.660647 278.763793,286.580759 274.962529,286.580759 L274.962529,286.580759 Z M269.455044,272.520474 C273.731466,272.520474 277.489477,273.611161 280.72919,275.792568 C283.968903,277.973975 286.020691,280.446919 286.884615,283.211474 L286.884615,277.898371 C286.884615,275.349796 286.528252,273.125227 285.815515,271.224595 C285.102778,269.323963 284.20647,267.822918 283.126566,266.721416 C282.046662,265.619913 280.761595,264.734405 279.271326,264.064864 C277.781058,263.395323 276.377204,262.952569 275.05972,262.736588 C273.742237,262.520607 272.349181,262.412619 270.880511,262.412619 C268.893487,262.412619 266.938889,262.617797 265.016659,263.028161 C263.094429,263.438525 261.679776,263.827285 260.772656,264.194452 C259.865536,264.56162 258.56967,265.112363 256.885019,265.846698 L250.211243,255.220491 C252.155071,253.665429 255.221954,252.261574 259.411983,251.008885 C263.602012,249.756196 267.424817,249.12986 270.880511,249.12986 C274.422597,249.12986 277.737854,249.464626 280.826381,250.134167 C283.914908,250.803707 286.8846,251.93759 289.735548,253.535849 C292.586496,255.134107 295.027043,257.1319 297.057264,259.529288 C299.087484,261.926676 300.696517,264.961162 301.884412,268.632837 C303.072307,272.304512 303.666246,276.451283 303.666246,281.073274 L303.666246,300.770633 L303.666246,320.532785 L287.014203,320.532785 L287.014203,311.720809 C286.107083,314.485364 284.066094,316.958308 280.891175,319.139715 C277.716256,321.321122 273.990642,322.411809 269.71422,322.411809 C263.105205,322.411809 257.522183,320.014458 252.964986,315.219682 C248.407789,310.424906 246.129225,304.463923 246.129225,297.336554 C246.129225,290.209184 248.39699,284.291397 252.932589,279.583013 C257.468187,274.87463 262.975618,272.520474 269.455044,272.520474 L269.455044,272.520474 Z M332.434756,288.718959 C329.799789,287.336682 327.737203,286.127207 326.246935,285.090499 C324.756667,284.05379 323.342013,282.747126 322.002932,281.170465 C320.66385,279.593805 319.713548,277.757995 319.151998,275.66298 C318.590448,273.567965 318.309677,271.030228 318.309677,268.049692 C318.309677,262.3046 320.480252,257.736673 324.821468,254.345773 C329.162684,250.954873 334.983282,249.259448 342.283436,249.259448 C349.065235,249.259448 354.659057,251.203247 359.065067,255.090903 C363.471077,258.978559 366.084406,263.492492 366.905134,268.632837 L351.354587,271.418977 C350.87943,268.611225 349.90753,266.699823 348.43886,265.684713 C346.97019,264.669603 345.004793,264.162055 342.542611,264.162055 C339.950841,264.162055 337.942249,264.550815 336.516775,265.328346 C335.091301,266.105877 334.378575,267.596123 334.378575,269.799128 C334.378575,271.224602 334.918519,272.455675 335.998423,273.492383 C337.078328,274.529091 338.320199,275.31741 339.724075,275.857362 C341.127951,276.397314 343.233733,277.20723 346.041484,278.287135 C348.849236,279.367039 351.289783,280.403732 353.3632,281.397244 C358.33076,283.81623 361.948386,286.667135 364.216185,289.950044 C366.483984,293.232954 367.617867,297.595702 367.617867,303.038421 C367.617867,308.610728 365.08013,313.232649 360.004579,316.904324 C354.929028,320.575999 348.827659,322.411809 341.70029,322.411809 C334.702509,322.411809 328.903509,320.554402 324.303116,316.83953 C319.702724,313.124659 316.711433,308.09238 315.329155,301.742542 L330.36135,299.215578 C330.836508,301.807349 332.132374,303.837539 334.248987,305.306209 C336.365599,306.774879 338.806147,307.509203 341.570702,307.509203 C343.082568,307.509203 344.356837,307.444409 345.393545,307.314821 C346.430253,307.185232 347.456147,306.926059 348.471257,306.537294 C349.486367,306.148528 350.253088,305.522193 350.771442,304.658269 C351.289796,303.794346 351.548969,302.714457 351.548969,301.418572 C351.548969,300.252275 351.192606,299.183186 350.479869,298.211272 C349.767132,297.239358 348.708842,296.364648 347.304966,295.587117 C345.90109,294.809586 344.475638,294.107659 343.028566,293.481314 C341.581494,292.85497 339.810477,292.099048 337.715463,291.213526 C335.620448,290.328004 333.86023,289.496491 332.434756,288.718959 L332.434756,288.718959 Z" id="canvas" sketch:type="MSShapeGroup" transform="translate(169.542785, 285.770835) rotate(-315.000000) translate(-169.542785, -285.770835) "></path>
            </g>
        </g>
    </g>
</svg>