<?xml version="1.0" encoding="UTF-8" standalone="no"?>
<svg width="1480px" height="427px" viewBox="0 0 1480 427" version="1.1" xmlns="http://www.w3.org/2000/svg" xmlns:xlink="http://www.w3.org/1999/xlink">
    <!-- Generator: Sketch 3.7.2 (28276) - http://www.bohemiancoding.com/sketch -->
    <title>game-top</title>
    <desc>Created with Sketch.</desc>
    <defs>
        <path d="M50.9310242,21.3074125 L40.805335,192.458932 L73.5234591,192.458928 L68.3476296,92.151539 L50.9310242,21.3074125 Z M125.26219,185.955424 L127.533789,68.5217341 L138.135189,0 L141.834702,104.542546 L149.68188,63.0695334 L162.589352,183.271961 L125.26219,185.955424 Z M87.3226087,183.991093 L95.3897107,69.4388224 L106.016858,156.050071 L103.839448,185.712229 L87.3226087,183.991093 Z M0.245827383,186.195776 L0,80.5079553 L8.80421106,36.7617295 L15.9069652,130.665028 L24.9832436,183.204416 L0.245827383,186.195776 Z" id="path-1"></path>
    </defs>
    <g id="Assets" stroke="none" stroke-width="1" fill="none" fill-rule="evenodd">
        <g id="game-top">
            <g id="World">
                <g id="Decs" transform="translate(700.000000, 256.000000)">
                    <g id="Spikes" transform="translate(0.195952, 0.341306)">
                        <mask id="mask-2" fill="white">
                            <use xlink:href="#path-1"></use>
                        </mask>
                        <use id="Mask" fill="#19FFC3" xlink:href="#path-1"></use>
                        <g id="Group" mask="url(#mask-2)" fill="#FF3C00">
                            <g transform="translate(4.084637, -6.807728)">
                                <polygon id="Path-8" points="43.0771823 63.2766364 60.2650044 66.2147094 48.6542032 22.2775084 45.1919491 25.4102501"></polygon>
                                <polygon id="Path-9" points="127.929936 36.6809055 138.683975 36.945798 134.013502 0.505150908"></polygon>
                                <polygon id="Path-10" points="0.506306431 59.7908661 11.4327843 59.7908661 6.24599043 35.2286383"></polygon>
                            </g>
                        </g>
                    </g>
                </g>
                <g id="Terrain">
                    <rect id="Buffer-1" fill="#19FFC3" x="968.058878" y="0" width="511.941122" height="32.6770929"></rect>
                    <rect id="Buffer-1" fill="#19FFC3" x="0.891440317" y="206.954922" width="594.10396" height="32.6770929"></rect>
                    <polygon id="World-Terrain" fill="#6D9F92" points="976.158186 8 976.158186 427.154779 588.98766 427.154779 588.987661 212.924409 1 212.924409 1 1648.15703 394.38348 1648.15703 394.383471 1778.19243 682.685344 1778.19243 682.685344 1702.76084 992.727029 1702.76084 992.727029 1879 1480.99999 1879 1480.99992 1648.15703 1481 8"></polygon>
                </g>
            </g>
        </g>
    </g>
</svg>