<?xml version="1.0" encoding="UTF-8" standalone="no"?>
<svg width="1480px" height="694px" viewBox="0 0 1480 694" version="1.1" xmlns="http://www.w3.org/2000/svg" xmlns:xlink="http://www.w3.org/1999/xlink">
    <!-- Generator: Sketch 3.7.2 (28276) - http://www.bohemiancoding.com/sketch -->
    <title>game-bottom</title>
    <desc>Created with Sketch.</desc>
    <defs></defs>
    <g id="Assets" stroke="none" stroke-width="1" fill="none" fill-rule="evenodd">
        <g id="game-bottom">
            <g id="World" transform="translate(0.000000, -1640.000000)">
                <g id="Decs" transform="translate(379.000000, 1770.000000)">
                    <g id="Hanging">
                        <path d="M29,0.5 L29,330.5" id="Vines" stroke="#19FFC3" stroke-width="10" stroke-linecap="round"></path>
                        <g id="Leaves" transform="translate(0.000000, 32.000000)" fill="#FE4A13">
                            <path d="M16.8557892,31.7890373 C16.8557892,31.7890373 8.04933837,24.5905436 8.04933838,17.6511584 C8.04933838,10.7117732 17.1632771,1.78396691 17.1632771,1.78396691 C17.1632771,1.78396691 25.5236659,10.4379038 25.5236659,17.6511584 C25.5236659,24.864413 16.8557892,31.7890373 16.8557892,31.7890373 Z" id="Path-26" transform="translate(16.786502, 16.786502) rotate(225.000000) translate(-16.786502, -16.786502) "></path>
                            <path d="M40.8557892,65.7890373 C40.8557892,65.7890373 32.0493384,58.5905436 32.0493384,51.6511584 C32.0493384,44.7117732 41.1632771,35.7839669 41.1632771,35.7839669 C41.1632771,35.7839669 49.5236659,44.4379038 49.5236659,51.6511584 C49.5236659,58.864413 40.8557892,65.7890373 40.8557892,65.7890373 Z" id="Path-26-Copy-4" transform="translate(40.786502, 50.786502) scale(1, -1) rotate(225.000000) translate(-40.786502, -50.786502) "></path>
                            <path d="M40.8557892,136.789037 C40.8557892,136.789037 32.0493384,129.590544 32.0493384,122.651158 C32.0493384,115.711773 41.1632771,106.783967 41.1632771,106.783967 C41.1632771,106.783967 49.5236659,115.437904 49.5236659,122.651158 C49.5236659,129.864413 40.8557892,136.789037 40.8557892,136.789037 Z" id="Path-26-Copy-5" transform="translate(40.786502, 121.786502) scale(1, -1) rotate(225.000000) translate(-40.786502, -121.786502) "></path>
                            <path d="M40.8557892,207.789037 C40.8557892,207.789037 32.0493384,200.590544 32.0493384,193.651158 C32.0493384,186.711773 41.1632771,177.783967 41.1632771,177.783967 C41.1632771,177.783967 49.5236659,186.437904 49.5236659,193.651158 C49.5236659,200.864413 40.8557892,207.789037 40.8557892,207.789037 Z" id="Path-26-Copy-6" transform="translate(40.786502, 192.786502) scale(1, -1) rotate(225.000000) translate(-40.786502, -192.786502) "></path>
                            <path d="M40.8557892,287.789037 C40.8557892,287.789037 32.0493384,280.590544 32.0493384,273.651158 C32.0493384,266.711773 41.1632771,257.783967 41.1632771,257.783967 C41.1632771,257.783967 49.5236659,266.437904 49.5236659,273.651158 C49.5236659,280.864413 40.8557892,287.789037 40.8557892,287.789037 Z" id="Path-26-Copy-7" transform="translate(40.786502, 272.786502) scale(1, -1) rotate(225.000000) translate(-40.786502, -272.786502) "></path>
                            <path d="M16.8557892,102.789037 C16.8557892,102.789037 8.04933837,95.5905436 8.04933838,88.6511584 C8.04933838,81.7117732 17.1632771,72.7839669 17.1632771,72.7839669 C17.1632771,72.7839669 25.5236659,81.4379038 25.5236659,88.6511584 C25.5236659,95.864413 16.8557892,102.789037 16.8557892,102.789037 Z" id="Path-26-Copy" transform="translate(16.786502, 87.786502) rotate(225.000000) translate(-16.786502, -87.786502) "></path>
                            <path d="M16.8557892,173.789037 C16.8557892,173.789037 8.04933837,166.590544 8.04933838,159.651158 C8.04933838,152.711773 17.1632771,143.783967 17.1632771,143.783967 C17.1632771,143.783967 25.5236659,152.437904 25.5236659,159.651158 C25.5236659,166.864413 16.8557892,173.789037 16.8557892,173.789037 Z" id="Path-26-Copy-2" transform="translate(16.786502, 158.786502) rotate(225.000000) translate(-16.786502, -158.786502) "></path>
                            <path d="M16.8557892,244.789037 C16.8557892,244.789037 8.04933837,237.590544 8.04933838,230.651158 C8.04933838,223.711773 17.1632771,214.783967 17.1632771,214.783967 C17.1632771,214.783967 25.5236659,223.437904 25.5236659,230.651158 C25.5236659,237.864413 16.8557892,244.789037 16.8557892,244.789037 Z" id="Path-26-Copy-3" transform="translate(16.786502, 229.786502) rotate(225.000000) translate(-16.786502, -229.786502) "></path>
                        </g>
                    </g>
                    <g id="Hanging-Copy" transform="translate(81.000000, 0.370745)">
                        <path d="M29,0.5 L29,557.629272" id="Vines" stroke="#19FFC3" stroke-width="10" stroke-linecap="round"></path>
                        <g id="Leaves" transform="translate(0.000000, 32.000000)" fill="#FE4A13">
                            <path d="M16.8557892,31.7890373 C16.8557892,31.7890373 8.04933837,24.5905436 8.04933838,17.6511584 C8.04933838,10.7117732 17.1632771,1.78396691 17.1632771,1.78396691 C17.1632771,1.78396691 25.5236659,10.4379038 25.5236659,17.6511584 C25.5236659,24.864413 16.8557892,31.7890373 16.8557892,31.7890373 Z" id="Path-26" transform="translate(16.786502, 16.786502) rotate(225.000000) translate(-16.786502, -16.786502) "></path>
                            <path d="M40.8557892,65.7890373 C40.8557892,65.7890373 32.0493384,58.5905436 32.0493384,51.6511584 C32.0493384,44.7117732 41.1632771,35.7839669 41.1632771,35.7839669 C41.1632771,35.7839669 49.5236659,44.4379038 49.5236659,51.6511584 C49.5236659,58.864413 40.8557892,65.7890373 40.8557892,65.7890373 Z" id="Path-26-Copy-4" transform="translate(40.786502, 50.786502) scale(1, -1) rotate(225.000000) translate(-40.786502, -50.786502) "></path>
                            <path d="M40.8557892,136.789037 C40.8557892,136.789037 32.0493384,129.590544 32.0493384,122.651158 C32.0493384,115.711773 41.1632771,106.783967 41.1632771,106.783967 C41.1632771,106.783967 49.5236659,115.437904 49.5236659,122.651158 C49.5236659,129.864413 40.8557892,136.789037 40.8557892,136.789037 Z" id="Path-26-Copy-5" transform="translate(40.786502, 121.786502) scale(1, -1) rotate(225.000000) translate(-40.786502, -121.786502) "></path>
                            <path d="M40.8557892,207.789037 C40.8557892,207.789037 32.0493384,200.590544 32.0493384,193.651158 C32.0493384,186.711773 41.1632771,177.783967 41.1632771,177.783967 C41.1632771,177.783967 49.5236659,186.437904 49.5236659,193.651158 C49.5236659,200.864413 40.8557892,207.789037 40.8557892,207.789037 Z" id="Path-26-Copy-6" transform="translate(40.786502, 192.786502) scale(1, -1) rotate(225.000000) translate(-40.786502, -192.786502) "></path>
                            <path d="M40.8557892,287.789037 C40.8557892,287.789037 32.0493384,280.590544 32.0493384,273.651158 C32.0493384,266.711773 41.1632771,257.783967 41.1632771,257.783967 C41.1632771,257.783967 49.5236659,266.437904 49.5236659,273.651158 C49.5236659,280.864413 40.8557892,287.789037 40.8557892,287.789037 Z" id="Path-26-Copy-7" transform="translate(40.786502, 272.786502) scale(1, -1) rotate(225.000000) translate(-40.786502, -272.786502) "></path>
                            <path d="M16.8557892,102.789037 C16.8557892,102.789037 8.04933837,95.5905436 8.04933838,88.6511584 C8.04933838,81.7117732 17.1632771,72.7839669 17.1632771,72.7839669 C17.1632771,72.7839669 25.5236659,81.4379038 25.5236659,88.6511584 C25.5236659,95.864413 16.8557892,102.789037 16.8557892,102.789037 Z" id="Path-26-Copy" transform="translate(16.786502, 87.786502) rotate(225.000000) translate(-16.786502, -87.786502) "></path>
                            <path d="M16.8557892,173.789037 C16.8557892,173.789037 8.04933837,166.590544 8.04933838,159.651158 C8.04933838,152.711773 17.1632771,143.783967 17.1632771,143.783967 C17.1632771,143.783967 25.5236659,152.437904 25.5236659,159.651158 C25.5236659,166.864413 16.8557892,173.789037 16.8557892,173.789037 Z" id="Path-26-Copy-2" transform="translate(16.786502, 158.786502) rotate(225.000000) translate(-16.786502, -158.786502) "></path>
                            <path d="M16.8557892,244.789037 C16.8557892,244.789037 8.04933837,237.590544 8.04933838,230.651158 C8.04933838,223.711773 17.1632771,214.783967 17.1632771,214.783967 C17.1632771,214.783967 25.5236659,223.437904 25.5236659,230.651158 C25.5236659,237.864413 16.8557892,244.789037 16.8557892,244.789037 Z" id="Path-26-Copy-3" transform="translate(16.786502, 229.786502) rotate(225.000000) translate(-16.786502, -229.786502) "></path>
                        </g>
                        <g id="Leaves-Copy" transform="translate(1.000000, 344.000000)" fill="#FE4A13">
                            <path d="M16.8557892,31.7890373 C16.8557892,31.7890373 8.04933837,24.5905436 8.04933838,17.6511584 C8.04933838,10.7117732 17.1632771,1.78396691 17.1632771,1.78396691 C17.1632771,1.78396691 25.5236659,10.4379038 25.5236659,17.6511584 C25.5236659,24.864413 16.8557892,31.7890373 16.8557892,31.7890373 Z" id="Path-26" transform="translate(16.786502, 16.786502) rotate(225.000000) translate(-16.786502, -16.786502) "></path>
                            <path d="M40.8557892,65.7890373 C40.8557892,65.7890373 32.0493384,58.5905436 32.0493384,51.6511584 C32.0493384,44.7117732 41.1632771,35.7839669 41.1632771,35.7839669 C41.1632771,35.7839669 49.5236659,44.4379038 49.5236659,51.6511584 C49.5236659,58.864413 40.8557892,65.7890373 40.8557892,65.7890373 Z" id="Path-26-Copy-4" transform="translate(40.786502, 50.786502) scale(1, -1) rotate(225.000000) translate(-40.786502, -50.786502) "></path>
                            <path d="M40.8557892,136.789037 C40.8557892,136.789037 32.0493384,129.590544 32.0493384,122.651158 C32.0493384,115.711773 41.1632771,106.783967 41.1632771,106.783967 C41.1632771,106.783967 49.5236659,115.437904 49.5236659,122.651158 C49.5236659,129.864413 40.8557892,136.789037 40.8557892,136.789037 Z" id="Path-26-Copy-5" transform="translate(40.786502, 121.786502) scale(1, -1) rotate(225.000000) translate(-40.786502, -121.786502) "></path>
                            <path d="M40.8557892,207.789037 C40.8557892,207.789037 32.0493384,200.590544 32.0493384,193.651158 C32.0493384,186.711773 41.1632771,177.783967 41.1632771,177.783967 C41.1632771,177.783967 49.5236659,186.437904 49.5236659,193.651158 C49.5236659,200.864413 40.8557892,207.789037 40.8557892,207.789037 Z" id="Path-26-Copy-6" transform="translate(40.786502, 192.786502) scale(1, -1) rotate(225.000000) translate(-40.786502, -192.786502) "></path>
                            <path d="M16.8557892,102.789037 C16.8557892,102.789037 8.04933837,95.5905436 8.04933838,88.6511584 C8.04933838,81.7117732 17.1632771,72.7839669 17.1632771,72.7839669 C17.1632771,72.7839669 25.5236659,81.4379038 25.5236659,88.6511584 C25.5236659,95.864413 16.8557892,102.789037 16.8557892,102.789037 Z" id="Path-26-Copy" transform="translate(16.786502, 87.786502) rotate(225.000000) translate(-16.786502, -87.786502) "></path>
                            <path d="M16.8557892,173.789037 C16.8557892,173.789037 8.04933837,166.590544 8.04933838,159.651158 C8.04933838,152.711773 17.1632771,143.783967 17.1632771,143.783967 C17.1632771,143.783967 25.5236659,152.437904 25.5236659,159.651158 C25.5236659,166.864413 16.8557892,173.789037 16.8557892,173.789037 Z" id="Path-26-Copy-2" transform="translate(16.786502, 158.786502) rotate(225.000000) translate(-16.786502, -158.786502) "></path>
                        </g>
                    </g>
                </g>
                <g id="Terrain">
                    <rect id="Rectangle-47" fill="#19FFC3" x="986" y="1843.95216" width="493" height="32.6770929"></rect>
                    <rect id="Rectangle-48" fill="#19FFC3" x="386" y="1744" width="301" height="33"></rect>
                    <polygon id="World-Terrain" fill="#6D9F92" points="975.158186 0 975.158186 419.154779 587.98766 419.154779 587.987661 204.924409 0 204.924409 0 1640.15703 393.38348 1640.15703 393.383471 1770.19243 681.685344 1770.19243 681.685344 1694.76084 991.727029 1694.76084 991.727029 1871 1479.99999 1871 1479.99992 1640.15703 1480 0"></polygon>
                </g>
            </g>
        </g>
    </g>
</svg>